<?xml version="1.0" encoding="UTF-8" standalone="no"?>
<svg xmlns="http://www.w3.org/2000/svg" xmlns:xlink="http://www.w3.org/1999/xlink" width="48" height="48" version="1.0">
  <defs>
    <linearGradient id="d">
      <stop offset="0"/>
      <stop offset=".5"/>
      <stop offset=".80000001" stop-opacity=".46666667"/>
      <stop offset="1" stop-opacity="0"/>
    </linearGradient>
    <linearGradient id="a">
      <stop offset="0" stop-color="#fb0"/>
      <stop offset=".5" stop-color="#e29d00"/>
      <stop offset="1" stop-color="#fb0"/>
    </linearGradient>
    <linearGradient id="c">
      <stop offset="0"/>
      <stop offset="1" stop-opacity="0"/>
    </linearGradient>
    <linearGradient id="b">
      <stop offset="0" stop-color="#ffc"/>
      <stop offset=".5" stop-color="#fff965"/>
      <stop offset="1" stop-color="#fc3"/>
    </linearGradient>
    <linearGradient xlink:href="#a" id="i" x1="8.0350637" x2="42.788235" y1="32.372219" y2="32.372219" gradientUnits="userSpaceOnUse" spreadMethod="pad"/>
    <radialGradient xlink:href="#b" id="f" cx="17.986637" cy="16.545853" r="23.978155" fx="17.986637" fy="16.545853" gradientUnits="userSpaceOnUse"/>
    <radialGradient xlink:href="#c" id="e" cx="53.309223" cy="94.956306" r="63.252911" fx="53.309223" fy="94.956306" gradientTransform="matrix(1 0 0 .34935 0 61.7838)" gradientUnits="userSpaceOnUse"/>
    <radialGradient xlink:href="#d" id="g" cx="18.71347" cy="21.759708" r="1.8644418" fx="18.71347" fy="21.759708" gradientTransform="matrix(1 0 0 1.77778 0 -16.92422)" gradientUnits="userSpaceOnUse"/>
  </defs>
  <path fill="url(#e)" d="M116.56213 94.956306a63.252911 22.097088 0 1 1-126.5058174 0 63.252911 22.097088 0 1 1 126.5058174 0z" opacity=".53200001" transform="matrix(.3162 0 0 .33941 6.936944 8.132618)"/>
  <path fill="url(#f)" stroke="#fb0" stroke-width="1.43869453" d="M47.094418 23.83131a23.478155 23.478155 0 1 1-46.9563107 0 23.478155 23.478155 0 1 1 46.9563107 0z" transform="translate(4.30185 4.122792) scale(.83409)"/>
  <path id="h" fill="#fff" fill-opacity="1" fill-rule="nonzero" stroke="#fc0" stroke-dasharray="none" stroke-dashoffset="0" stroke-linejoin="miter" stroke-miterlimit="4" stroke-opacity="1" stroke-width="1" d="M21.682767 18.5142a3.9360437 6.9743929 0 1 1-7.872088 0 3.9360437 6.9743929 0 1 1 7.872088 0z" opacity="1" transform="matrix(1.01507 0 0 1.00354 -.0090285 .916405)"/>
  <path id="j" fill="url(#g)" fill-opacity="1" fill-rule="nonzero" stroke="none" stroke-dasharray="none" stroke-dashoffset="0" stroke-linejoin="miter" stroke-miterlimit="4" stroke-opacity="1" stroke-width="1" d="M20.577912 21.759708a1.8644418 3.314563 0 1 1-3.728883 0 1.8644418 3.314563 0 1 1 3.728883 0z" opacity="1" transform="translate(-.138107 .535104)"/>
  <use xlink:href="#h" width="48" height="48" transform="translate(12.50001 -4.4e-7)"/>
  <path fill="none" stroke="url(#i)" stroke-linecap="round" stroke-width="1.97319973" d="M9.0216636 35.899178c4.7689724-7.457767 10.9544424-9.489956 17.3095664-3.728884 5.404329 4.899155 11.190398 4.350365 15.470406-.656007"/>
  <path fill="none" stroke="#e2ac00" stroke-linecap="round" stroke-width="1.17813516" d="M15.504748 34.21319c3.012147-3.243177 6.693658.87012 6.693658.87012" opacity=".8"/>
  <use xlink:href="#j" width="48" height="48" transform="translate(10.78418 -5)"/>
</svg>