<?xml version="1.0" encoding="UTF-8"?><svg id="Artwork" xmlns="http://www.w3.org/2000/svg" viewBox="0 0 216 209.18"><defs><style>.cls-1{fill:#c2e6f1;}.cls-2{fill:#dcf1f7;}.cls-3{fill:#2d4554;}.cls-4{fill:#60cae5;}</style></defs><polygon class="cls-3" points="0 82.47 0 126.71 34.84 146.83 34.84 187.06 73.16 209.18 108 189.07 142.84 209.18 181.16 187.06 181.16 146.83 216 126.71 216 82.47 181.16 62.35 181.16 22.12 142.84 0 108 20.12 73.16 0 34.84 22.12 34.84 62.35 0 82.47"/><path class="cls-2" d="m114.33,56.69l20.64-11.92c.47-.27.47-.79,0-1.06l-20.65-11.92h0c-4.44-2.57-8.22-2.57-12.67,0l-20.65,11.92c-.47.27-.47.79,0,1.06l20.64,11.92c4.44,2.57,8.22,2.57,12.67,0h0Z"/><path class="cls-2" d="m98.19,62.71h0s-20.64-11.92-20.64-11.92c-.47-.27-.92-.01-.92.53v23.84s0,0,0,0c0,5.13,1.89,8.4,6.33,10.97l20.65,11.92c.47.27.92,0,.92-.54v-23.84c0-5.13-1.89-8.4-6.33-10.97Z"/><path class="cls-1" d="m48.12,66.01l20.65,11.92c.47.27.92,0,.92-.54v-23.84c0-5.13-1.89-8.4-6.33-10.97h0s-20.64-11.92-20.64-11.92c-.47-.27-.92-.01-.92.53v23.84s0,0,0,0c0,5.13,1.89,8.4,6.33,10.97Z"/><path class="cls-2" d="m46.18,24.66l20.64,11.92c4.44,2.57,8.22,2.57,12.67,0h0s20.64-11.92,20.64-11.92c.47-.27.47-.79,0-1.06l-20.65-11.92h0c-4.44-2.57-8.22-2.57-12.67,0l-20.65,11.92c-.47.27-.47.79,0,1.06Z"/><path class="cls-2" d="m115.87,24.66l20.64,11.92c4.44,2.57,8.22,2.57,12.67,0h0s20.64-11.92,20.64-11.92c.47-.27.47-.79,0-1.06l-20.65-11.92h0c-4.44-2.57-8.22-2.57-12.67,0l-20.65,11.92c-.47.27-.47.79,0,1.06Z"/><path class="cls-2" d="m152.65,42.59c-4.44,2.56-6.33,5.84-6.33,10.97v23.84c0,.54.45.8.92.54l20.65-11.92c4.44-2.57,6.33-5.84,6.33-10.97h0v-23.84c0-.54-.45-.8-.92-.53l-20.64,11.92h0Z"/><path class="cls-2" d="m77.55,158.4l20.65-11.92h0c4.44-2.57,6.33-5.84,6.33-10.97v-23.84c0-.54-.45-.8-.92-.53l-20.64,11.92c-4.44,2.57-6.33,5.84-6.33,10.97h0s0,23.84,0,23.84c0,.54.45.8.92.54Z"/><path class="cls-4" d="m146.31,134.03v23.84c0,.54.45.8.92.54l20.65-11.92c4.44-2.57,6.33-5.84,6.33-10.97h0s0-23.84,0-23.84c0-.54-.45-.8-.92-.53l-20.64,11.92h0c-4.44,2.57-6.33,5.84-6.33,10.97Z"/><path class="cls-4" d="m63.35,123.06h0s-20.64-11.92-20.64-11.92c-.47-.27-.92-.01-.92.53v23.84s0,0,0,0c0,5.13,1.89,8.4,6.33,10.97l20.65,11.92c.47.27.92,0,.92-.54v-23.84c0-5.13-1.89-8.4-6.33-10.97Z"/><path class="cls-4" d="m103.61,151.37l-20.64,11.92c-4.44,2.57-6.33,5.84-6.33,10.97h0s0,23.84,0,23.84c0,.54.45.8.92.54l20.65-11.92h0c4.44-2.57,6.33-5.84,6.33-10.97v-23.84c0-.54-.45-.8-.92-.53Z"/><path class="cls-4" d="m63.35,163.29h0s-20.64-11.92-20.64-11.92c-.47-.27-.92-.01-.92.53v23.84s0,0,0,0c0,5.13,1.89,8.4,6.33,10.97l20.65,11.92c.47.27.92,0,.92-.54v-23.84c0-5.13-1.89-8.4-6.33-10.97Z"/><path class="cls-4" d="m28.51,102.94h0s-20.64-11.92-20.64-11.92c-.47-.27-.92-.01-.92.53v23.84s0,0,0,0c0,5.13,1.89,8.4,6.33,10.97l20.65,11.92c.47.27.92,0,.92-.54v-23.84c0-5.13-1.89-8.4-6.33-10.97Z"/><path class="cls-4" d="m133.04,163.29l-20.64-11.92c-.47-.27-.92-.01-.92.53v23.84c0,5.13,1.89,8.4,6.33,10.97h0s20.65,11.92,20.65,11.92c.47.27.92,0,.92-.54v-23.84s0,0,0,0c0-5.13-1.89-8.4-6.33-10.97Z"/><path class="cls-4" d="m173.29,151.37l-20.64,11.92h0c-4.44,2.57-6.33,5.84-6.33,10.97v23.84c0,.54.45.8.92.54l20.65-11.92c4.44-2.57,6.33-5.84,6.33-10.97h0s0-23.84,0-23.84c0-.54-.45-.8-.92-.53Z"/><path class="cls-4" d="m209.06,91.55c0-.54-.45-.8-.92-.53l-20.64,11.92h0c-4.44,2.57-6.33,5.84-6.33,10.97v23.84c0,.54.45.8.92.54l20.65-11.92c4.44-2.57,6.33-5.84,6.33-10.97h0v-23.84Z"/><path class="cls-2" d="m149.18,117.04l20.64-11.92c.47-.27.47-.79,0-1.06l-20.65-11.92h0c-4.44-2.57-8.22-2.57-12.67,0l-20.65,11.92c-.47.27-.47.79,0,1.06l20.64,11.92c4.44,2.57,8.22,2.57,12.67,0h0Z"/><path class="cls-1" d="m112.39,98.05l20.65-11.92c4.44-2.57,6.33-5.84,6.33-10.97h0v-23.84c0-.54-.45-.8-.92-.53l-20.64,11.92h0c-4.44,2.57-6.33,5.84-6.33,10.97v23.84c0,.54.45.8.92.54Z"/><path class="cls-1" d="m100.13,105.12c.47-.27.47-.79,0-1.06l-20.65-11.92c-4.44-2.57-8.22-2.57-12.67,0h0s-20.65,11.92-20.65,11.92c-.47.27-.47.79,0,1.06l20.64,11.92h0c4.44,2.57,8.22,2.57,12.67,0l20.64-11.92Z"/><path class="cls-2" d="m65.29,85.01c.47-.27.47-.79,0-1.06l-20.65-11.92c-4.44-2.57-8.22-2.57-12.67,0h0s-20.65,11.92-20.65,11.92c-.47.27-.47.79,0,1.06l20.64,11.92h0c4.44,2.57,8.22,2.57,12.67,0l20.64-11.92Z"/><path class="cls-1" d="m133.04,123.06l-20.64-11.92c-.47-.27-.92-.01-.92.53v23.84c0,5.13,1.89,8.4,6.33,10.97h0s20.65,11.92,20.65,11.92c.47.27.92,0,.92-.54v-23.84s0,0,0,0c0-5.13-1.89-8.4-6.33-10.97Z"/><path class="cls-1" d="m184.02,96.93l20.64-11.92c.47-.27.47-.79,0-1.06l-20.65-11.92h0c-4.44-2.57-8.22-2.57-12.67,0l-20.65,11.92c-.47.27-.47.79,0,1.06l20.64,11.92c4.44,2.57,8.22,2.57,12.67,0h0Z"/></svg>